<svg width="26" height="29" viewBox="0 0 26 29" fill="none" xmlns="http://www.w3.org/2000/svg">
<path d="M13 28L12.6907 28.6833C12.8873 28.7722 13.1127 28.7722 13.3093 28.6833L13 28ZM16.75 13C16.75 15.0711 15.0711 16.75 13 16.75V18.25C15.8995 18.25 18.25 15.8995 18.25 13H16.75ZM13 16.75C10.9289 16.75 9.25 15.0711 9.25 13H7.75C7.75 15.8995 10.1005 18.25 13 18.25V16.75ZM9.25 13C9.25 10.9289 10.9289 9.25 13 9.25V7.75C10.1005 7.75 7.75 10.1005 7.75 13H9.25ZM13 9.25C15.0711 9.25 16.75 10.9289 16.75 13H18.25C18.25 10.1005 15.8995 7.75 13 7.75V9.25ZM24.25 13C24.25 19.1912 19.2087 24.3663 12.6907 27.3167L13.3093 28.6833C20.0461 25.6337 25.75 20.0637 25.75 13H24.25ZM13.3093 27.3167C6.7913 24.3663 1.75 19.1912 1.75 13H0.25C0.25 20.0637 5.95386 25.6337 12.6907 28.6833L13.3093 27.3167ZM1.75 13C1.75 6.7868 6.7868 1.75 13 1.75V0.25C5.95837 0.25 0.25 5.95837 0.25 13H1.75ZM13 1.75C19.2132 1.75 24.25 6.7868 24.25 13H25.75C25.75 5.95837 20.0416 0.25 13 0.25V1.75Z" fill="white"/>
</svg>
