<svg width="26" height="20" viewBox="0 0 26 20" fill="none" xmlns="http://www.w3.org/2000/svg">
<path d="M11.1144 10.7531L11.635 10.2132L11.635 10.2132L11.1144 10.7531ZM14.8856 10.7531L14.365 10.2132L14.365 10.2132L14.8856 10.7531ZM2.33333 1.75H23.6667V0.25H2.33333V1.75ZM24.25 2.28571V17.7143H25.75V2.28571H24.25ZM23.6667 18.25H2.33333V19.75H23.6667V18.25ZM1.75 17.7143V2.28571H0.25V17.7143H1.75ZM2.33333 18.25C1.98523 18.25 1.75 17.9847 1.75 17.7143H0.25C0.25 18.8641 1.20868 19.75 2.33333 19.75V18.25ZM24.25 17.7143C24.25 17.9847 24.0148 18.25 23.6667 18.25V19.75C24.7913 19.75 25.75 18.8641 25.75 17.7143H24.25ZM2.33333 0.25C1.76703 0.25 1.24815 0.471977 0.869923 0.836694L1.91113 1.91646C2.01547 1.81584 2.16326 1.75 2.33333 1.75V0.25ZM0.869923 0.836694C0.491218 1.20187 0.25 1.71463 0.25 2.28571H1.75C1.75 2.14671 1.80726 2.01662 1.91113 1.91646L0.869923 0.836694ZM23.6667 1.75C23.8367 1.75 23.9845 1.81584 24.0889 1.91646L25.1301 0.836695C24.7519 0.471976 24.233 0.25 23.6667 0.25V1.75ZM24.0889 1.91646C24.1927 2.01662 24.25 2.14671 24.25 2.28571H25.75C25.75 1.71463 25.5088 1.20187 25.1301 0.836695L24.0889 1.91646ZM10.5938 11.293C11.9257 12.5773 14.0743 12.5773 15.4062 11.293L14.365 10.2132C13.6142 10.9373 12.3858 10.9373 11.635 10.2132L10.5938 11.293ZM0.869925 1.91646L10.5938 11.293L11.635 10.2132L1.91112 0.836692L0.869925 1.91646ZM15.4062 11.293L25.1301 1.91646L24.0889 0.836692L14.365 10.2132L15.4062 11.293Z" fill="white"/>
</svg>
