<svg width="26" height="26" viewBox="0 0 26 26" fill="none" xmlns="http://www.w3.org/2000/svg">
<path d="M24.9993 18.9689L24.2495 18.9503C24.2493 18.9565 24.2493 18.9627 24.2493 18.9689H24.9993ZM24.9993 22.582H24.2493L24.2493 22.585L24.9993 22.582ZM3.41082 1.00012V0.250116L3.41011 0.250117L3.41082 1.00012ZM7.03101 1.00012V1.75015L7.03838 1.75008L7.03101 1.00012ZM8.62844 1.58246L8.13997 2.15157V2.15157L8.62844 1.58246ZM8.21361 10.5265L7.68381 9.99563C7.44447 10.2345 7.39457 10.604 7.56196 10.8978L8.21361 10.5265ZM15.454 17.7526L15.0838 18.4048C15.377 18.5712 15.7452 18.5215 15.9838 18.2834L15.454 17.7526ZM24.4279 17.3521L24.9997 16.8667V16.8667L24.4279 17.3521ZM10.3904 7.80572L11.1239 7.96246V7.96245L10.3904 7.80572ZM18.1802 15.58L18.3363 16.3136L18.1802 15.58ZM22.3686 24.9907L22.436 24.2437C22.4134 24.2417 22.3907 24.2406 22.368 24.2407L22.3686 24.9907ZM1.00942 3.62559L1.75942 3.62618C1.75944 3.6034 1.75842 3.58064 1.75636 3.55796L1.00942 3.62559ZM24.2493 18.9689V22.582H25.7493V18.9689H24.2493ZM3.41082 1.75012H7.03101V0.250117H3.41082V1.75012ZM7.03838 1.75008C7.44245 1.74611 7.83396 1.88893 8.13997 2.15157L9.11691 1.01334C8.53483 0.513742 7.79085 0.242617 7.02365 0.250153L7.03838 1.75008ZM7.56196 10.8978C9.34671 14.0303 11.9454 16.6238 15.0838 18.4048L15.8242 17.1003C12.9203 15.4524 10.5162 13.0529 8.86527 10.1552L7.56196 10.8978ZM23.8562 17.8375C24.1197 18.148 24.2596 18.544 24.2495 18.9503L25.749 18.9876C25.7683 18.2126 25.5015 17.4578 24.9997 16.8667L23.8562 17.8375ZM8.13997 2.15157C8.34146 2.32452 8.57442 2.65075 8.80371 3.13004C9.02719 3.59717 9.22235 4.15699 9.37414 4.74087C9.68706 5.94452 9.77612 7.09158 9.657 7.64899L11.1239 7.96245C11.3172 7.05785 11.1565 5.63505 10.8259 4.36346C10.6559 3.70971 10.4309 3.05557 10.1568 2.48269C9.88858 1.92197 9.54663 1.38217 9.11691 1.01334L8.13997 2.15157ZM18.3363 16.3136C18.8968 16.1943 20.0514 16.2839 21.2609 16.5982C21.8478 16.7506 22.41 16.9467 22.8785 17.1713C23.3593 17.4018 23.6849 17.6358 23.8562 17.8375L24.9997 16.8667C24.6313 16.4328 24.0895 16.0884 23.527 15.8187C22.952 15.5431 22.2949 15.317 21.6381 15.1464C20.3603 14.8143 18.9307 14.6535 18.024 14.8465L18.3363 16.3136ZM15.9838 18.2834C16.1944 18.0732 16.4062 17.8383 16.6019 17.6249C16.804 17.4045 16.9971 17.1979 17.1957 17.0108C17.5992 16.6309 17.9633 16.393 18.3363 16.3136L18.024 14.8465C17.2533 15.0105 16.6455 15.4685 16.1674 15.9188C15.9252 16.1468 15.7001 16.3889 15.4964 16.6111C15.2864 16.8401 15.1047 17.0415 14.9242 17.2217L15.9838 18.2834ZM9.657 7.64899C9.57766 8.02027 9.33975 8.38333 8.95894 8.78611C8.77147 8.98438 8.56447 9.17705 8.34366 9.37874C8.12975 9.57413 7.89442 9.78544 7.68381 9.99563L8.74342 11.0573C8.92395 10.8772 9.1258 10.6959 9.35528 10.4863C9.57784 10.283 9.82042 10.0583 10.0489 9.81664C10.4999 9.33958 10.9593 8.73263 11.1239 7.96246L9.657 7.64899ZM22.368 24.2407C10.7496 24.2497 1.75032 15.1681 1.75942 3.62618L0.25942 3.625C0.249675 15.992 9.91715 25.7504 22.3692 25.7407L22.368 24.2407ZM24.2493 22.585C24.2531 23.5259 23.3884 24.3296 22.436 24.2437L22.3012 25.7376C24.1376 25.9033 25.7567 24.4003 25.7493 22.5789L24.2493 22.585ZM1.75636 3.55796C1.67096 2.61471 2.46784 1.751 3.41152 1.75012L3.41011 0.250117C1.59503 0.251823 0.0967095 1.86249 0.262475 3.69322L1.75636 3.55796Z" fill="white"/>
</svg>
